<svg width="29" height="28" viewBox="0 0 29 28" fill="none" xmlns="http://www.w3.org/2000/svg">
<path d="M25.9529 19.1926H9.2068L10.0476 17.5273L24.0182 17.5027C24.4906 17.5027 24.8956 17.1746 24.9799 16.7207L26.9147 6.19062C26.9653 5.91445 26.8894 5.63008 26.7038 5.41406C26.612 5.30775 26.4976 5.22211 26.3685 5.16309C26.2393 5.10407 26.0985 5.07308 25.9558 5.07227L8.18319 5.01484L8.03133 4.32031C7.93572 3.87734 7.52515 3.55469 7.05834 3.55469H2.71362C2.45035 3.55469 2.19786 3.65638 2.0117 3.8374C1.82553 4.01841 1.72095 4.26393 1.72095 4.51992C1.72095 4.77592 1.82553 5.02143 2.0117 5.20245C2.19786 5.38346 2.45035 5.48516 2.71362 5.48516H6.25408L6.91774 8.55312L8.55157 16.2449L6.44811 19.5836C6.33888 19.727 6.27308 19.8972 6.25817 20.075C6.24326 20.2528 6.27983 20.4312 6.36375 20.5898C6.53248 20.9152 6.87274 21.1203 7.24956 21.1203H9.01557C8.63908 21.6065 8.43573 22.1988 8.43628 22.8074C8.43628 24.3551 9.72985 25.6129 11.3215 25.6129C12.9132 25.6129 14.2067 24.3551 14.2067 22.8074C14.2067 22.1977 13.9986 21.6043 13.6274 21.1203H18.1578C17.7813 21.6065 17.5779 22.1988 17.5785 22.8074C17.5785 24.3551 18.872 25.6129 20.4637 25.6129C22.0553 25.6129 23.3489 24.3551 23.3489 22.8074C23.3489 22.1977 23.1408 21.6043 22.7696 21.1203H25.9558C26.5013 21.1203 26.9484 20.6883 26.9484 20.1551C26.9468 19.8994 26.8412 19.6546 26.6547 19.4743C26.4682 19.294 26.2159 19.1927 25.9529 19.1926ZM8.59657 6.91797L24.7887 6.96992L23.2027 15.6051L10.4835 15.627L8.59657 6.91797ZM11.3215 23.6715C10.8322 23.6715 10.4329 23.2832 10.4329 22.8074C10.4329 22.3316 10.8322 21.9434 11.3215 21.9434C11.8108 21.9434 12.2101 22.3316 12.2101 22.8074C12.2101 23.0366 12.1165 23.2564 11.9499 23.4184C11.7832 23.5805 11.5572 23.6715 11.3215 23.6715ZM20.4637 23.6715C19.9744 23.6715 19.5751 23.2832 19.5751 22.8074C19.5751 22.3316 19.9744 21.9434 20.4637 21.9434C20.953 21.9434 21.3523 22.3316 21.3523 22.8074C21.3523 23.0366 21.2587 23.2564 21.092 23.4184C20.9254 23.5805 20.6994 23.6715 20.4637 23.6715Z" fill="black"/>
</svg>
